<svg xmlns="http://www.w3.org/2000/svg" version="1.1" xmlns:xlink="http://www.w3.org/1999/xlink" xmlns:svgjs="http://svgjs.com/svgjs" width="1440" height="560" preserveAspectRatio="none" viewBox="0 0 1440 560"><g mask="url(&quot;#SvgjsMask1003&quot;)" fill="none"><rect width="1440" height="560" x="0" y="0" fill="rgba(250, 247, 251, 1)"></rect><path d="M -717.3356596848265,367 C -645.34,335.6 -501.34,218.8 -357.3356596848265,210 C -213.34,201.2 -141.34,331.4 2.66434031517349,323 C 146.66,314.6 218.66,173 362.6643403151735,168 C 506.66,163 578.66,285.6 722.6643403151735,298 C 866.66,310.4 939.2,212.6 1082.6643403151734,230 C 1226.13,247.4 1368.53,354 1440,385" stroke="rgba(214, 199, 227, 0.41)" stroke-width="2"></path><path d="M -693.173748126726,316 C -621.17,293.8 -477.17,200.2 -333.173748126726,205 C -189.17,209.8 -117.17,346 26.826251873273975,340 C 170.83,334 242.83,169.6 386.826251873274,175 C 530.83,180.4 602.83,375.2 746.826251873274,367 C 890.83,358.8 968.19,130.6 1106.826251873274,134 C 1245.46,137.4 1373.37,334 1440,384" stroke="rgba(214, 199, 227, 0.41)" stroke-width="2"></path><path d="M -631.3598597087343,172 C -559.36,203.2 -415.36,321.8 -271.3598597087344,328 C -127.36,334.2 -55.36,210.8 88.6401402912656,203 C 232.64,195.2 304.64,304.4 448.6401402912656,289 C 592.64,273.6 664.64,110.8 808.6401402912657,126 C 952.64,141.2 1042.37,344.8 1168.6401402912657,365 C 1294.91,385.2 1385.73,254.6 1440,227" stroke="rgba(214, 199, 227, 0.41)" stroke-width="2"></path><path d="M -685.3588907653482,131 C -613.36,169.2 -469.36,292.6 -325.3588907653482,322 C -181.36,351.4 -109.36,255.6 34.64110923465182,278 C 178.64,300.4 250.64,445.4 394.6411092346518,434 C 538.64,422.6 610.64,226.6 754.6411092346518,221 C 898.64,215.4 977.57,417.2 1114.6411092346518,406 C 1251.71,394.8 1374.93,213.2 1440,165" stroke="rgba(214, 199, 227, 0.41)" stroke-width="2"></path></g><defs><mask id="SvgjsMask1003"><rect width="1440" height="560" fill="#ffffff"></rect></mask></defs></svg>